<svg width="58" height="58" viewBox="0 0 58 58" fill="none" xmlns="http://www.w3.org/2000/svg">
<circle cx="29" cy="29" r="29" fill="#FF0000"/>
<ellipse cx="36.811" cy="41.4374" rx="2.85174" ry="2.56258" fill="black"/>
<ellipse cx="24.4394" cy="41.4374" rx="2.85174" ry="2.56258" fill="black"/>
<path d="M8 15C10.013 15 14 15 14 15C14 15 14.7293 17.2333 15.735 20.3513M20.6861 35.6703H40.6483M20.6861 35.6703C20.3018 34.4829 19.8515 33.091 19.3694 31.6003M20.6861 35.6703L19.3694 31.6003M19.3694 31.6003H24.712M19.3694 31.6003C18.775 29.7625 18.1323 27.7745 17.5055 25.8345M15.735 20.3513H23.1604M15.735 20.3513C16.2663 21.9984 16.878 23.8924 17.5055 25.8345M23.1604 20.3513L24.712 31.6003M23.1604 20.3513H29.6816M24.712 31.6003H29.6816M29.6816 20.3513V31.6003M29.6816 20.3513H36.5908M29.6816 31.6003H34.777M36.5908 20.3513H43.5L41.4252 25.8345M36.5908 20.3513L34.777 31.6003M34.777 31.6003H39.2434L41.4252 25.8345M17.5055 25.8345H41.4252" stroke="black" stroke-width="3"/>
</svg>
