<svg width="58" height="109" viewBox="0 0 58 109" fill="none" xmlns="http://www.w3.org/2000/svg">
<circle cx="29" cy="80" r="29" fill="#FF0000"/>
<ellipse cx="36.811" cy="92.4373" rx="2.85174" ry="2.56258" fill="black"/>
<ellipse cx="24.4394" cy="92.4373" rx="2.85174" ry="2.56258" fill="black"/>
<path d="M8 66C10.013 66 14 66 14 66C14 66 14.7293 68.2333 15.735 71.3513M20.6861 86.6703H40.6483M20.6861 86.6703C20.3018 85.4829 19.8515 84.091 19.3694 82.6003M20.6861 86.6703L19.3694 82.6003M19.3694 82.6003H24.712M19.3694 82.6003C18.775 80.7625 18.1323 78.7745 17.5055 76.8345M15.735 71.3513H23.1604M15.735 71.3513C16.2663 72.9984 16.878 74.8924 17.5055 76.8345M23.1604 71.3513L24.712 82.6003M23.1604 71.3513H29.6816M24.712 82.6003H29.6816M29.6816 71.3513V82.6003M29.6816 71.3513H36.5908M29.6816 82.6003H34.777M36.5908 71.3513H43.5L41.4252 76.8345M36.5908 71.3513L34.777 82.6003M34.777 82.6003H39.2434L41.4252 76.8345M17.5055 76.8345H41.4252" stroke="black" stroke-width="3"/>
</svg>
